<svg xmlns="http://www.w3.org/2000/svg" viewBox="0 0 24 24" fill="#232F3E">
  <path d="M18.304 12.625l-1.892-1.892-1.892 1.892 1.892 1.892zm-3.784-3.784l-1.892-1.892-1.892 1.892 1.892 1.892zm0 7.568l-1.892-1.892-1.892 1.892 1.892 1.892zm-3.784-3.784l-1.892-1.892-1.892 1.892 1.892 1.892zm7.568 0l-1.892-1.892-1.892 1.892 1.892 1.892zM5.68 8.84l-1.892-1.892-1.892 1.892 1.892 1.892zm0 7.568l-1.892-1.892-1.892 1.892 1.892 1.892zm3.784-3.784L7.572 11.724 5.68 13.616l1.892 1.892zm7.568 0l-1.892-1.892-1.892 1.892 1.892 1.892z"/>
  <path d="M12 2L2 7l10 5 10-5-10-5zm0 2.18L19.82 7 12 9.82 4.18 7 12 4.18z" fill="#FF9900"/>
</svg>



